<svg xmlns="http://www.w3.org/2000/svg" width="145" height="42.118" viewBox="0 0 145 42.118">
  <g id="logo" transform="translate(307.527 -179.474)">
    <g id="Group_99" data-name="Group 99" transform="translate(-307.527 179.474)">
      <ellipse id="Ellipse_16" data-name="Ellipse 16" cx="17" cy="17.5" rx="17" ry="17.5" transform="translate(27 3.118)" fill="#ebebeb"/>
      <ellipse id="Ellipse_17" data-name="Ellipse 17" cx="17" cy="17.5" rx="17" ry="17.5" transform="translate(0 3.118)" fill="#a0041e"/>
      <g id="Group_98" data-name="Group 98" transform="translate(7.346 0)">
        <path id="Path_212" data-name="Path 212" d="M1137.183,527.1l-.176-1.155c-.492-.325-.518-.5-.13-.936-.053-.249-.1-.515-.173-.775a.471.471,0,0,0-.171-.2c-.269-.215-.322-.421-.123-.7a.432.432,0,0,0,.068-.394,4.346,4.346,0,0,0-.361-1.252c-.05-.085-.017-.216-.058-.309-.11-.246-.235-.486-.365-.723-.085-.155-.208-.29-.28-.45a.424.424,0,0,1,.485-.636,2.7,2.7,0,0,1,.712.293,1.586,1.586,0,0,1,.353.293c.109.107.2.229.3.347.511-.1,1.016-.213,1.525-.3.465-.08.934-.138,1.4-.2a1.567,1.567,0,0,1,.353,0,.552.552,0,0,1,.328.984c-.1.086-.2.162-.307.24q-.7.519-1.394,1.036a.448.448,0,0,0-.161.2c.1-.022.192-.052.29-.064a1.266,1.266,0,0,1,.35-.015.462.462,0,0,1,.4.356.49.49,0,0,1-.18.505q-.535.491-1.066.987a.6.6,0,0,0-.17.255c.219-.057.441-.1.656-.172q1.789-.568,3.575-1.144a.923.923,0,0,1,.27-.079c.1,0,.242.027.274.089a.379.379,0,0,1-.018.319.727.727,0,0,1-.295.242c-.3.146-.6.288-.9.4-1.359.511-2.722,1.012-4.083,1.517l-.189.074-.134,1.284c.224-.019.443-.032.661-.056.95-.107,1.9-.219,2.851-.327a1.05,1.05,0,0,1,.317,0,.347.347,0,0,1,.3.307.341.341,0,0,1-.247.382,1.605,1.605,0,0,1-.346.065,49.3,49.3,0,0,0-5.515.935c-.136.031-.27.074-.434.12l.113,1.128c.13-.034.243-.06.354-.092a39.818,39.818,0,0,1,4.3-1.052c.2-.034.4-.072.6-.088a.506.506,0,0,1,.589.634,2.03,2.03,0,0,1-.165.54c-.471.978-.945,1.955-1.435,2.924a10.619,10.619,0,0,1-.618,1.033.581.581,0,0,1-.762.277,2.366,2.366,0,0,0-1.224-.045c-.461.1-.923.189-1.408.288-.007.162-.013.3-.02.465.129.007.231.016.333.017q2.924.021,5.849.041a1.755,1.755,0,0,1,.316.033.374.374,0,0,1,.315.3.378.378,0,0,1-.17.432,1.5,1.5,0,0,1-.522.2,11.95,11.95,0,0,1-1.3.135c-1.5.058-3,.1-4.5.146-.1,0-.208.014-.33.022-.011.12-.031.223-.03.326q.011,1.4.029,2.8a9.445,9.445,0,0,1-.16,2.433,3.394,3.394,0,0,1-.268.764c-.161.307-.38.332-.669.139a.488.488,0,0,0-.185-.068c-.239-.041-.3-.093-.335-.33a2.271,2.271,0,0,1-.01-.424q.112-1.946.231-3.892c.035-.565.08-1.129.125-1.745-.156,0-.281-.006-.405,0-1.156.062-2.312.122-3.468.192a4.914,4.914,0,0,0-1.615.372,1.73,1.73,0,0,1-.369.121.351.351,0,0,1-.419-.471,1,1,0,0,1,.224-.352,2.062,2.062,0,0,1,.994-.591c.548-.14,1.105-.242,1.661-.349a.894.894,0,0,0,.551-.2.608.608,0,0,1,.261-.1q1.172-.345,2.345-.687c.112-.033.223-.068.342-.1v-.638c-.9-.544-.988-.794-.493-1.45-.242-.069-.488-.136-.529-.452a.722.722,0,0,0-.179.034c-.718.359-1.442.705-2.145,1.091a4.891,4.891,0,0,0-.813.622.552.552,0,0,1-.842.015q-.778-.643-1.565-1.275a.505.505,0,0,1,.052-.916,5.971,5.971,0,0,1,.88-.455c1.4-.568,2.806-1.122,4.21-1.681a.7.7,0,0,0,.3-.2c-.178.012-.357.022-.535.038-.647.059-1.293.126-1.941.177a4.708,4.708,0,0,1-.708-.006.771.771,0,0,1-.332-.107.174.174,0,0,1,.023-.314.783.783,0,0,1,.238-.06l3.783-.568a.8.8,0,0,0,.133-.052c-.074-.2-.155-.393-.216-.593a6.118,6.118,0,0,1-.24-.884,1.317,1.317,0,0,1,.263-1,.951.951,0,0,1,1.7.281,1.592,1.592,0,0,1-.032,1.011,2.844,2.844,0,0,0-.121,1.092Zm-1.767,4.85a3.514,3.514,0,0,1,.322.633,3.2,3.2,0,0,1,.039.675,6.679,6.679,0,0,1,2.685-.328,18.4,18.4,0,0,0,1.946-3.822,14.526,14.526,0,0,0-3.426.7c.517.463.494.818-.05,1.182-.206.138-.418.266-.627.4Zm-5.483,0a21.709,21.709,0,0,1,4.5-2.043c-.016-.2-.027-.374-.046-.548s-.048-.367-.073-.55a24.831,24.831,0,0,0-5.429,2.291Zm7.953-9.858a3.393,3.393,0,0,0,.857-.747l-1.012.186Zm-3.406,12.34-.018-.1-.4.1C1134.2,534.46,1134.354,534.542,1134.481,534.436Zm3.579-10.6.066.077.145-.168-.053-.052Z" transform="translate(-1125.796 -500.243)"/>
        <path id="Path_213" data-name="Path 213" d="M1147.907,229.448c-.238.168-.469.346-.714.5-.289.182-.584.356-.888.51a.961.961,0,0,1-1.1-.1,1.1,1.1,0,0,1-.427-1.066,3.809,3.809,0,0,1,.751-1.7,7.206,7.206,0,0,0,.452-.718,1.013,1.013,0,0,0,.007-1.02c-.178-.318-.393-.616-.6-.917-.127-.185-.283-.35-.4-.54a.582.582,0,0,1,.009-.669.569.569,0,0,1,.622-.244,1.383,1.383,0,0,1,.51.225,3.506,3.506,0,0,1,1.264,1.755,2.062,2.062,0,0,1-.714,2.377,2.363,2.363,0,0,0-.918,1.138.751.751,0,0,0-.011.645,1.223,1.223,0,0,0,.25-.09,6.4,6.4,0,0,0,.764-.513,5.993,5.993,0,0,1,1.529-.951.5.5,0,0,0,.325-.451,4.9,4.9,0,0,0-.819-3.742,4.221,4.221,0,0,1-.313-.514.948.948,0,0,1-.1-.3.463.463,0,0,1,.63-.545,1.456,1.456,0,0,1,.475.3,4.669,4.669,0,0,1,1.57,4.37c-.016.116-.036.231-.059.375.109.015.2.032.285.039a3.191,3.191,0,0,1,1.473.46c.179.114.368.214.548.327a.839.839,0,0,1,.218.176.243.243,0,0,1-.109.4.668.668,0,0,1-.311.042c-.362-.049-.723-.105-1.082-.176a3.317,3.317,0,0,0-1.156-.115.374.374,0,0,0-.318.233,7.349,7.349,0,0,1-1.491,2.142,7.443,7.443,0,0,1-.792.705,14.3,14.3,0,0,1-2.385,1.589c-.857.393-1.736.739-2.61,1.095-.116.047-.255.14-.39.03-.031-.157.088-.192.174-.243.642-.376,1.285-.75,1.931-1.119,2.535-1.483,3.115-2.242,3.9-3.491a1.576,1.576,0,0,0,.076-.155Z" transform="translate(-1139.073 -222.489)"/>
        <path id="Path_214" data-name="Path 214" d="M1104.654,342.212c.046-.279.085-.523.126-.766a8.716,8.716,0,0,1,2.04-4.293,10.006,10.006,0,0,1,4.17-2.776,3.928,3.928,0,0,1,1.946-.263,1.545,1.545,0,0,1,.375.1c.241.1.362.274.33.448s-.192.281-.465.3a7.573,7.573,0,0,0-.773.081,2.143,2.143,0,0,0-1.587,1.33,1.1,1.1,0,0,0-.063.379.75.75,0,0,1-.33.562.3.3,0,0,1-.512-.184c-.077-.268-.156-.536-.251-.864a6.351,6.351,0,0,0-.869.556q-.424.376-.831.772a7.773,7.773,0,0,0-2.235,4.486l-.051.315a2.058,2.058,0,0,0,.154,1.407,2.617,2.617,0,0,1,.313,1.332,1.679,1.679,0,0,1-.01.212.456.456,0,0,1-.335.413c-.2.043-.359-.039-.48-.276-.151-.294-.292-.593-.43-.894a3.775,3.775,0,0,0-2.337-2.03,5.377,5.377,0,0,0-2.789-.234,2.245,2.245,0,0,1-.6.024.424.424,0,0,1-.4-.305.4.4,0,0,1,.148-.445,1.943,1.943,0,0,1,.548-.307,4.919,4.919,0,0,1,1.928-.176,6.406,6.406,0,0,1,3.126,1.039A.931.931,0,0,0,1104.654,342.212Z" transform="translate(-1098.749 -326.829)"/>
        <path id="Path_215" data-name="Path 215" d="M1126.8,537.27c.093-.134.179-.273.279-.4.307-.39.6-.789.932-1.16a4.084,4.084,0,0,0,.894-1.645c.061-.289.077-1.554-.358-1.9l-1.069.787c.1.039.14.053.178.07.39.173.458.475.149.772a6.872,6.872,0,0,1-.617.475,6.911,6.911,0,0,0-.844.721,1.869,1.869,0,0,0,.2-.047c.368-.128.733-.263,1.1-.387a.78.78,0,0,1,.572-.012,2.558,2.558,0,0,1-.324.341,3.624,3.624,0,0,1-.522.3q-1.559.761-3.122,1.516a.43.43,0,1,1-.475-.714c.253-.193.524-.363.785-.546q.843-.587,1.683-1.177c.355-.25.708-.5,1.108-.79-.121.012-.193.018-.264.027-.159.018-.32.018-.408-.14-.1-.179.013-.318.13-.439s.257-.244.386-.365a.431.431,0,0,0,.134-.192c-.106.022-.211.049-.318.066-.651.107-1.3.217-1.955.311a.994.994,0,0,1-.419-.043.366.366,0,0,1-.151-.641.96.96,0,0,1,.361-.214c.495-.156.995-.294,1.493-.44.074-.022.147-.046.284-.089-.219-.071-.374-.115-.523-.171a.931.931,0,0,1-.517-.41.491.491,0,0,1,.362-.751.394.394,0,0,1,.106-.007,13.8,13.8,0,0,1,2.147.206,3.182,3.182,0,0,1,1.58.9,2.539,2.539,0,0,1,.555,2.666,10.166,10.166,0,0,1-1.6,1.9c-.448.454-.794.7-1.409,1.272A5.7,5.7,0,0,1,1126.8,537.27Z" transform="translate(-1121.957 -509.982)"/>
        <path id="Path_216" data-name="Path 216" d="M1235.7,401.768c.681-.2,1.317-.417,1.972-.554s1.322-.188,2-.279c-.027-.052-.064-.119-.1-.188-.2-.376-.386-.756-.59-1.129-.317-.58-.643-1.155-.966-1.732a1.81,1.81,0,0,1-.187-.34c-.026-.088-.02-.243.034-.284a.383.383,0,0,1,.317-.037.824.824,0,0,1,.3.241q.383.442.746.9a10.971,10.971,0,0,0,2.214,2.134,10.362,10.362,0,0,0,1.217.72c.438.23.615.482.528.847a.813.813,0,0,1-.845.569,2.141,2.141,0,0,1-1.175-.347,8.03,8.03,0,0,1-.84-.647.655.655,0,0,0-.439-.184,9.77,9.77,0,0,0-4.1.819,2.032,2.032,0,0,0-.833.583,1.587,1.587,0,0,1-.2.2c-.109.1-.221.19-.378.1s-.135-.236-.116-.378c.023-.176.058-.35.076-.526a16.5,16.5,0,0,0,.078-2.9,10.672,10.672,0,0,1-.029-1.133,1.592,1.592,0,0,1,.124-.546.733.733,0,0,1,1.328-.047,3.2,3.2,0,0,1,.251.771,5.748,5.748,0,0,1-.308,3.169Z" transform="translate(-1225.442 -385.849)"/>
      </g>
    </g>
    <g id="Group_97" data-name="Group 97" transform="translate(-267.18 188.573)">
      <text id="I" transform="translate(99.653 15.02)" font-size="16" font-family="Gilroy-ExtraBold, Gilroy" font-weight="800" letter-spacing="0.5em"><tspan x="0" y="0">I</tspan></text>
      <text id="A" transform="translate(79.653 16.02)" font-size="17" font-family="Gilroy-ExtraBold, Gilroy" font-weight="800" letter-spacing="0.5em"><tspan x="0" y="0">A</tspan></text>
      <text id="P" transform="translate(60.653 15.02)" font-size="16" font-family="Gilroy-ExtraBold, Gilroy" font-weight="800" letter-spacing="0.5em"><tspan x="0" y="0">P</tspan></text>
      <text id="N" transform="translate(39.653 15.02)" font-size="16" font-family="Gilroy-ExtraBold, Gilroy" font-weight="800" letter-spacing="0.5em"><tspan x="0" y="0">N</tspan></text>
      <text id="E" transform="translate(20.653 16.02)" font-size="17" font-family="Gilroy-ExtraBold, Gilroy" font-weight="800" letter-spacing="0.5em"><tspan x="0" y="0">E</tspan></text>
      <text id="S" transform="translate(-0.347 16.02)" font-size="17" font-family="Gilroy-ExtraBold, Gilroy" font-weight="800" letter-spacing="0.5em"><tspan x="0" y="0">S</tspan></text>
    </g>
  </g>
</svg>
