<svg xmlns="http://www.w3.org/2000/svg" width="684.483" height="629.105" viewBox="0 0 684.483 629.105">
  <g id="Group_822" data-name="Group 822" transform="translate(-37.452 -62.877)">
    <path id="Path_2267" data-name="Path 2267" d="M663.4,505.427c-28.371,0-51.584,24.88-51.584,55.289h0c0,55.482-42.353,100.877-94.117,100.877H161.074c-67.246,0-122.264-58.97-122.264-131.046h0c0-72.074,55.018-131.046,122.264-131.046h0c13.495,0,24.538-11.834,24.538-26.3h0c0-14.464-11.043-26.3-24.538-26.3H97.1c-32.806,0-59.646-28.77-59.646-63.93h0c0-35.121,26.779-63.864,59.533-63.93h58.2c28.37,0,51.582-24.88,51.582-55.289h0c0-55.482,42.354-100.877,94.118-100.877H599.424c67.246,0,122.264,58.972,122.264,131.046h0c0,72.074-55.018,131.046-122.264,131.046h0c-13.495,0-24.536,11.836-24.536,26.3h0c0,14.462,11.041,26.3,24.536,26.3H663.4C741.446,377.567,741.446,505.427,663.4,505.427Z" transform="translate(0 0)" fill="#c6e3f1" fill-rule="evenodd"/>
    <path id="Path_2268" data-name="Path 2268" d="M204.274,124.689a1.514,1.514,0,0,0-1.21-2.627,1.493,1.493,0,0,0-.8.368q-1.144,1.023-2.259,2.075a1.512,1.512,0,1,0,2.075,2.2q1.082-1.023,2.2-2.016ZM341.13,470.851a1.513,1.513,0,0,0-.868,2.726,1.5,1.5,0,0,0,.932.3l1.256-.02,1.578-.041.223-.009a1.512,1.512,0,1,0-.131-3.022l-1.735.047-1.256.021Zm11.944-.655a1.513,1.513,0,0,0,.328,3.007l1.376-.142,1.665-.193a1.513,1.513,0,0,0-.4-3l-1.6.186-1.377.142Zm11.829-1.727a1.513,1.513,0,0,0,.6,2.965l.9-.176,1.4-.294.7-.155a1.512,1.512,0,1,0-.67-2.949l-.663.146-1.368.287-.9.176Zm11.579-2.879a1.512,1.512,0,1,0,.915,2.882l1.224-.379,1.3-.423.389-.132a1.512,1.512,0,0,0-.986-2.86l-.355.121-1.267.411-1.223.381Zm11.2-4.1a1.512,1.512,0,1,0,1.227,2.763l1.021-.445,1.2-.543.574-.267a1.513,1.513,0,1,0-1.3-2.733l-.54.251-1.165.527-1.02.446Zm10.65-5.355a1.513,1.513,0,0,0,.889,2.811,1.491,1.491,0,0,0,.641-.2l.45-.259,1.1-.652,1.08-.662a1.512,1.512,0,1,0-1.6-2.568l-1.048.641-1.063.632-.45.261Zm9.918-6.58a1.512,1.512,0,0,0,1.842,2.4l.659-.5.98-.763.776-.621a1.512,1.512,0,1,0-1.9-2.351l-.746.6-.95.739-.659.5Zm9.04-7.743a1.512,1.512,0,1,0,2.124,2.152l.611-.6.864-.861.69-.707a1.512,1.512,0,1,0-2.175-2.1l-.666.682-.837.837-.611.6Zm8.026-8.8a1.512,1.512,0,1,0,2.368,1.881l.439-.547.746-.949.7-.915a1.512,1.512,0,1,0-2.412-1.824l-.679.885-.723.922-.439.547Zm6.905-9.708a1.513,1.513,0,1,0,2.573,1.592l.244-.388.625-1.024.724-1.219a1.513,1.513,0,0,0-2.627-1.5l-.688,1.159-.608.994-.244.388Zm5.723-10.457a1.512,1.512,0,1,0,2.735,1.293l.585-1.254.5-1.092.2-.45a1.512,1.512,0,1,0-2.776-1.2l-.185.42-.48,1.063-.573,1.222Zm4.5-11.029a1.512,1.512,0,1,0,2.87.956l.358-1.053.374-1.144.224-.709a1.513,1.513,0,0,0-2.891-.894l-.214.678-.364,1.112-.357,1.053Zm3.269-11.477a1.512,1.512,0,1,0,2.955.648l.2-.881.254-1.182L449.3,388a1.512,1.512,0,1,0-2.966-.588l-.182.894-.247,1.151-.2.882Zm2.041-11.762a1.512,1.512,0,1,0,3,.342l.09-.76.132-1.209.105-1.07a1.512,1.512,0,1,0-3.012-.28l-.1,1.04-.128,1.178-.089.759Zm.821-11.911a1.514,1.514,0,0,0,2.914.591,1.547,1.547,0,0,0,.111-.554l.013-.706.009-1.223,0-1.125a1.511,1.511,0,1,0-3.023.024l0,1.094-.008,1.193-.013.706Zm-.379-11.935a1.512,1.512,0,0,0,3.013-.266l-.061-.73-.114-1.227-.112-1.082a1.512,1.512,0,1,0-3.007.324l.109,1.053.111,1.2.061.732Zm-1.561-11.839a1.512,1.512,0,1,0,2.97-.565l-.155-.838-.237-1.22-.195-.939a1.512,1.512,0,1,0-2.959.622l.186.911.233,1.19.156.84Zm-2.723-11.627a1.512,1.512,0,1,0,2.9-.859l-.3-1.033-.364-1.2-.216-.693a1.513,1.513,0,1,0-2.882.919l.209.663.354,1.172.3,1.031Zm-3.864-11.313a1.511,1.511,0,1,0,2.807-1.122l-.534-1.324-.487-1.169-.149-.345A1.512,1.512,0,0,0,438.9,317.2l.136.317.476,1.139.524,1.3Zm-4.962-10.856a1.513,1.513,0,0,0,2.678-1.408l-.29-.554-.6-1.131-.551-1.01a1.512,1.512,0,1,0-2.646,1.463l.537.983.585,1.1.288.555Zm-6.019-10.3a1.513,1.513,0,0,0,2.514-1.682l-.693-1.048-.729-1.078-.284-.409a1.512,1.512,0,1,0-2.477,1.734l.266.384.71,1.051.693,1.048Zm-7.032-9.658a1.513,1.513,0,0,0,2.341-1.918l-.5-.621-.844-1.019-.6-.713a1.514,1.514,0,0,0-2.656.857,1.5,1.5,0,0,0,.358,1.109l.582.688.822.993.5.624Zm-7.961-8.907a1.513,1.513,0,0,0,2.54-1.423,1.5,1.5,0,0,0-.4-.71l-.4-.4-.959-.952-.82-.8a1.514,1.514,0,0,0-2.52,1.438,1.5,1.5,0,0,0,.426.744l.8.774.935.926.4.4Zm-8.8-8.069a1.512,1.512,0,0,0,1.921-2.337l-.463-.385-1.074-.874-.84-.666a1.513,1.513,0,1,0-1.868,2.379l.813.645,1.048.852.463.385Zm-9.546-7.178a1.511,1.511,0,1,0,1.678-2.513l-.811-.55-1.19-.787-.547-.352a1.512,1.512,0,1,0-1.624,2.551l.517.334,1.165.768.813.548Zm-10.2-6.253a1.512,1.512,0,1,0,1.455-2.651l-.28-.156-1.294-.7-1.119-.59a1.512,1.512,0,0,0-1.4,2.682l1.09.575,1.266.685.28.156Zm-10.722-5.31a1.512,1.512,0,1,0,1.222-2.766l-1.442-.628-1.367-.578a1.513,1.513,0,0,0-1.886,2.159,1.5,1.5,0,0,0,.724.632l1.337.567,1.412.614Zm-11.14-4.371a1.511,1.511,0,1,0,.984-2.858l-.219-.077q-1.334-.454-2.672-.895a1.514,1.514,0,0,0-1.821,2.115,1.5,1.5,0,0,0,.884.76c.879.288,1.752.584,2.627.879l.217.075Zm-11.467-3.588a1.513,1.513,0,0,0,.83-2.909q-1.464-.415-2.931-.818a1.513,1.513,0,0,0-.8,2.919c.967.264,1.931.534,2.9.808Zm-11.64-3.044a1.514,1.514,0,0,0,1.361-2.6,1.49,1.49,0,0,0-.659-.345c-.945-.172-2.006-.473-2.96-.69a1.512,1.512,0,1,0-.672,2.948c.942.216,2,.514,2.931.685Zm-11.761-2.568a1.513,1.513,0,0,0,.588-2.967q-1.492-.3-2.982-.578a1.512,1.512,0,0,0-.565,2.97q1.481.281,2.959.575Zm-11.856-2.152a1.514,1.514,0,0,0,1.283-2.592,1.5,1.5,0,0,0-.791-.391q-1.5-.249-3-.483a1.512,1.512,0,1,0-.469,2.987q1.487.234,2.975.479Zm-11.92-1.786a1.512,1.512,0,0,0,.4-3q-1.5-.2-3.007-.4a1.512,1.512,0,0,0-.385,3c1,.129,1.993.259,2.99.393Zm-11.972-1.463a1.512,1.512,0,1,0,.33-3.006c-1.006-.109-2.01-.22-3.016-.322a1.513,1.513,0,0,0-1.132,2.658,1.478,1.478,0,0,0,.821.349l3,.321Zm-12.006-1.181a1.515,1.515,0,0,0,1.091-2.678,1.49,1.49,0,0,0-.827-.335c-1.007-.09-2.014-.173-3.022-.257a1.512,1.512,0,0,0-.249,3.014q1.5.124,3.006.256Zm-12.083-1.078a1.512,1.512,0,1,0,.33-3.006q-1.5-.16-2.99-.335a1.512,1.512,0,1,0-.359,3c1.006.119,2.013.23,3.02.338Zm-12.068-1.577a1.513,1.513,0,0,0,.477-2.987c-.986-.155-1.985-.305-2.963-.484a1.512,1.512,0,1,0-.521,2.979c1,.179,2.006.334,3.007.493Zm-11.978-2.236a1.514,1.514,0,0,0,1.487-2.446,1.493,1.493,0,0,0-.837-.507q-1.466-.322-2.925-.666a1.513,1.513,0,1,0-.7,2.943q1.485.347,2.973.676Zm-11.825-3.027a1.512,1.512,0,1,0,.864-2.9c-.953-.283-1.909-.577-2.857-.881a1.513,1.513,0,1,0-.932,2.878q1.457.469,2.925.9Zm-11.565-3.989a1.512,1.512,0,1,0,1.126-2.806q-1.387-.554-2.757-1.142a1.514,1.514,0,0,0-1.719,2.406,1.56,1.56,0,0,0,.518.369q1.406.605,2.831,1.172Zm-11.124-5.167a1.512,1.512,0,1,0,1.442-2.659q-1.306-.7-2.59-1.452a1.512,1.512,0,1,0-1.537,2.605c.884.517,1.783,1.02,2.685,1.506ZM200,209.585a1.514,1.514,0,0,0,2.345-1.69,1.491,1.491,0,0,0-.523-.723c-.791-.594-1.565-1.2-2.333-1.827a1.512,1.512,0,0,0-1.919,2.337c.8.651,1.605,1.284,2.429,1.9ZM190.82,201.3a1.513,1.513,0,1,0,2.243-2.03c-.663-.729-1.3-1.47-1.925-2.23a1.513,1.513,0,1,0-2.345,1.911c.658.8,1.328,1.582,2.027,2.35Zm-7.276-10.072a1.512,1.512,0,0,0,2.652-1.453c-.473-.858-.919-1.722-1.341-2.607a1.512,1.512,0,1,0-2.736,1.288c.446.939.921,1.86,1.425,2.771Zm-4.591-11.579a1.513,1.513,0,1,0,2.938-.723q-.356-1.419-.617-2.857a1.513,1.513,0,0,0-2.945-.146,1.486,1.486,0,0,0-.034.67c.185,1.026.406,2.044.658,3.056Zm-1.395-12.386a1.512,1.512,0,1,0,3.023.077c.023-.976.071-1.949.155-2.922a1.512,1.512,0,1,0-3.012-.273c-.094,1.033-.143,2.081-.166,3.118Zm1.994-12.315a1.513,1.513,0,1,0,2.888.9c.27-.882.6-1.926.952-2.769A1.513,1.513,0,1,0,180.567,152c-.372.963-.712,1.966-1.014,2.95Zm5.023-11.346a1.512,1.512,0,1,0,2.618,1.514q.737-1.283,1.533-2.527a1.513,1.513,0,0,0-2.547-1.632q-.831,1.306-1.6,2.645Zm7.042-10.12a1.514,1.514,0,0,0,1.276,2.466,1.492,1.492,0,0,0,1.065-.551c.628-.769,1.27-1.517,1.921-2.266a1.513,1.513,0,1,0-2.273-2C192.928,131.9,192.266,132.691,191.617,133.484Z" transform="translate(107.567 76.83)" fill="#fff" fill-rule="evenodd"/>
    <g id="Group_809" data-name="Group 809" transform="translate(256.466 273.928)">
      <path id="Path_2269" data-name="Path 2269" d="M212.258,212.3a.959.959,0,0,1,1.619,1.027c-.108.172-38.1,59.2-8.091,93.607a.957.957,0,0,1-1.44,1.26C173.386,272.7,212.147,212.479,212.258,212.3Z" transform="translate(-151.013 -105.367)" fill="#000618" fill-rule="evenodd"/>
      <path id="Path_2270" data-name="Path 2270" d="M284.7,206.819a.956.956,0,1,1,1.618-1.02c.063.1,21.761,33.778-1.125,59.653a.956.956,0,0,1-1.432-1.267C305.681,239.4,284.755,206.912,284.7,206.819Z" transform="translate(-112.675 -108.104)" fill="#000618" fill-rule="evenodd"/>
      <path id="Path_2271" data-name="Path 2271" d="M218.378,184.364l-16,17.592a64.211,64.211,0,0,1,6.9,31.342c-.761,17.781-60.711,116.342,50.042,115.834s49.134-57.647,49.134-57.647,36.534-11.83,18.085-64.729S218.378,184.364,218.378,184.364Z" transform="translate(-150.995 -117.287)" fill="#000618" fill-rule="evenodd"/>
      <path id="Path_2272" data-name="Path 2272" d="M303.823,284.262c-.644-.645-1.02-.994-1.02-.994a23.817,23.817,0,0,0,3.316-1.476,99.785,99.785,0,0,0,9.462-12.5c15.1-23.48-.97-55.762-.97-55.762l-8.547-2.553s-17.021-6.1-21.592-7.62-57.409,1.777-72.4,29.974,1.707,69.073,1.707,69.073,62.305-2.011,65.861-2.266C282.291,299.952,292.533,295.964,303.823,284.262Z" transform="translate(-145.347 -109.07)" fill="#01020e" fill-rule="evenodd"/>
      <path id="Path_2273" data-name="Path 2273" d="M310.762,271.046c17.794,7.769,20.1,24.037,22.415,42.141,2.05,16.055,2.692,40.281-1.536,77.083s-71.489-48.549-71.489-48.549Z" transform="translate(-122.502 -80.476)" fill="#ef8871" fill-rule="evenodd"/>
      <path id="Path_2274" data-name="Path 2274" d="M246.878,273.323l-17.271-8.836s-18.248,4.542-27.586,16.277S164.411,392.8,163.344,405.069s7.245,59.015,22.45,59.015,22.769-102.2,22.769-102.2l12.418-38.305Z" transform="translate(-163.253 -83.235)" fill="#f4ad85" fill-rule="evenodd"/>
      <path id="Path_2275" data-name="Path 2275" d="M245.753,273.323l-17.271-8.836a68.352,68.352,0,0,0-12.61,4.844c2.237,1.081,3.986,3.844,3.781,9.968-.533,16.007-24.942,77.09-30.276,94.163s-9.6,27.208-9.6,27.208l-11.117-23.315c-1,3.767-1.919,7.3-2.729,10.513,4.159,22.411,9.332,53.133,10.035,70.7,2.578,3.421,5.486,5.522,8.707,5.522,15.2,0,22.769-102.2,22.769-102.2l12.418-38.305Z" transform="translate(-162.128 -83.235)" fill="#ef8871" fill-rule="evenodd"/>
      <path id="Path_2276" data-name="Path 2276" d="M278.05,255.194s45.9,16.358,58.856,22.519c-.023.024-2.477,2.588-5.265,16.657-2.8,14.139,0,34.678-2.932,54.951-2.121,14.649-12.039,88.756-17.38,128.754l-113.135-9.127c-.034-1.783-.107-3.925-.21-6.354,9.292,7.235,18.2,7.557,12.686-13.576-9.6-36.812-7.738-100.832-4.536-120.038s7.969-39.42,3.435-58.892C212.613,267.345,278.05,255.194,278.05,255.194Z" transform="translate(-148.646 -87.143)" fill="#d84f50" fill-rule="evenodd"/>
      <path id="Path_2277" data-name="Path 2277" d="M306.546,262.958c11.482,4.307,23.142,8.84,28.714,11.489-.023.024-2.477,2.588-5.265,16.657-2.8,14.139,0,34.678-2.932,54.951-.425,2.933-1.163,8.253-2.114,15.2-25.561,3.983-101.063,12.631-119.181,11.026a32.255,32.255,0,0,1-3.868-.584c0-19.976,1.161-37.427,2.587-45.983.081-.491.165-.984.249-1.476,6.4,18.875,86.911,29.425,86.911,29.425S305,324.134,301.529,313.2s-19.479-10.631-19.479-10.631l.406-9.775s16.008-21.675,19.854-28.27C302.793,263.691,304.289,263.192,306.546,262.958Z" transform="translate(-147 -83.878)" fill="#c23e3e" fill-rule="evenodd"/>
      <path id="Path_2278" data-name="Path 2278" d="M312.514,265.7l.946.359c-2.039,8.225-4.77,17.873-8.584,23.558-3.439,5.124-7.455,9.846-13.288,13.227s-13.447,5.405-24.087,5.135a35.626,35.626,0,0,1-22.493-8.506A46.811,46.811,0,0,1,230.755,277.1c-2.931-10.225-5.691-13.633-6.631-14.556l1.119-.247c1.31,1.537,3.881,5.458,6.481,14.528a45.783,45.783,0,0,0,13.93,21.881,34.643,34.643,0,0,0,21.871,8.269c10.432.264,17.882-1.71,23.558-5s9.592-7.9,12.957-12.916c3.746-5.584,6.454-15.189,8.474-23.359Zm18.852,7.518c.287.124.565.246.838.365-2.208,3.911-5.317,12.124-8.178,29.31-3.426,20.6.5,29.887,3.506,33.8-.033.47-.067.94-.105,1.411-3.223-3.658-8.1-13.116-4.392-35.373,2.808-16.883,5.985-25.314,8.331-29.509ZM203.181,331.7q.107-.97.217-1.865c2.58-5.076,12.4-27.407,6.8-63.864.305-.1.625-.189.974-.288,6.434,41.695-7.177,65.212-7.495,65.754a.51.51,0,0,1-.109.139A.5.5,0,0,1,203.181,331.7Z" transform="translate(-146.461 -84.156)" fill="#b23539" fill-rule="evenodd"/>
      <path id="Path_2279" data-name="Path 2279" d="M265.23,220.633l.345,0A18.141,18.141,0,0,1,283.9,238.538l.23,36.745c6.662,2.435,14.633,5.387,22.1,8.238-11.746,25.364-25.6,42.125-47.738,37.323-30.326-6.577-29.246-32.04-38.483-41.429,8.627-1.869,18.748-3.9,27.532-5.62l-.219-34.836A18.2,18.2,0,0,1,265.23,220.633Z" transform="translate(-139.383 -101.679)" fill="#ef8871" fill-rule="evenodd"/>
      <path id="Path_2280" data-name="Path 2280" d="M275.646,231.161a17.754,17.754,0,0,1,1.125,6.118l.23,36.745c6.662,2.435,14.633,5.387,22.1,8.238-8.638,18.655-18.419,32.656-31.8,36.846,21.273-14.346,14.734-32.066,10.2-33.934s-40.535-11.962-40.535-11.962l3.443-.675-.219-34.836a18.245,18.245,0,0,1,6.508-14.079C256.292,223.533,265.847,226.508,275.646,231.161Z" transform="translate(-132.252 -100.421)" fill="#ea745d" fill-rule="evenodd"/>
      <path id="Path_2281" data-name="Path 2281" d="M284.881,196.13c.354,0,.7.013,1.053.037l.01,0h0a14.165,14.165,0,1,1-11.339,4.382c.195,4.191,1.536,9.232,6.892,9.042l-1.23-8.072C279.769,198.252,282.624,196.339,284.881,196.13Z" transform="translate(-118.058 -111.982)" fill="#ea745d" fill-rule="evenodd"/>
      <path id="Path_2282" data-name="Path 2282" d="M212.557,207.388c-.341.094-.676.2-1.006.313l-.01,0h0a14.164,14.164,0,1,0,12.092,1.263c.908,4.1.932,9.313-4.289,10.532l-.925-8.114C218.049,208.1,214.793,207,212.557,207.388Z" transform="translate(-146.916 -107.279)" fill="#ea745d" fill-rule="evenodd"/>
      <path id="Path_2283" data-name="Path 2283" d="M252.706,152.493h0a48.628,48.628,0,0,1,54.457,41.66l5.817,43.712a48.627,48.627,0,0,1-41.663,54.455h0a48.624,48.624,0,0,1-54.451-41.662l-5.819-43.712A48.624,48.624,0,0,1,252.706,152.493Z" transform="translate(-143.331 -130.512)" fill="#f4ad85" fill-rule="evenodd"/>
      <path id="Path_2284" data-name="Path 2284" d="M252.706,152.493h0a48.646,48.646,0,0,1,53.744,37.635,20.2,20.2,0,0,1-2.213,7.116l-22.4-1.308s-14.744,28.187-45.027,35.035c-8.141,1.841-10.7,10.046-9.032,17.841,4.05,18.984,20.346,46.189,60.481,37.926a48.064,48.064,0,0,1-16.941,5.584h0a48.625,48.625,0,0,1-54.451-41.662l-5.819-43.712A48.624,48.624,0,0,1,252.706,152.493Z" transform="translate(-143.331 -130.512)" fill="#ef8871" fill-rule="evenodd"/>
      <path id="Path_2285" data-name="Path 2285" d="M235.663,220.2a6.377,6.377,0,1,1-5.343,7.265A6.377,6.377,0,0,1,235.663,220.2Z" transform="translate(-135.078 -101.889)" fill="#ea745d" fill-rule="evenodd"/>
      <path id="Path_2286" data-name="Path 2286" d="M272.452,214.383a6.377,6.377,0,1,1-5.343,7.266A6.38,6.38,0,0,1,272.452,214.383Z" transform="translate(-119.607 -104.337)" fill="#ea745d" fill-rule="evenodd"/>
      <path id="Path_2287" data-name="Path 2287" d="M229.413,203.674a1.821,1.821,0,0,0-.452,3.614,18.469,18.469,0,0,0,5.22-.148,14.624,14.624,0,0,0,9.117-5.009,1.822,1.822,0,0,0-2.81-2.32C237.832,203.037,233.414,204.1,229.413,203.674Z" transform="translate(-136.289 -110.711)" fill="#01020e" fill-rule="evenodd"/>
      <path id="Path_2288" data-name="Path 2288" d="M290.412,278.03s1.851-.267,2.269,1.183-5.719,9.253-6.12,9.521-12.569-1.267-12.569-1.267-.642-.6-.506-1.063a2.265,2.265,0,0,1,.588-.867Z" transform="translate(-116.902 -77.547)" fill="#000618" fill-rule="evenodd"/>
      <path id="Path_2289" data-name="Path 2289" d="M275.839,193.551c-3.979-.72-8.437-.071-11.367,2.948a1.822,1.822,0,1,1-2.612-2.54,14.617,14.617,0,0,1,9.495-4.253,18.485,18.485,0,0,1,5.211.277,1.821,1.821,0,0,1-.726,3.568Z" transform="translate(-122 -114.713)" fill="#01020e" fill-rule="evenodd"/>
      <path id="Path_2290" data-name="Path 2290" d="M229.485,235.217s.428,3.213.824,6.2-5.327,10.965-7.614,11.268l-1.449-10.887s-1.635-4.864-7.8-4.041c-21.811-19.231-23.911-54.083-6.1-74.67s61.027-27.5,68.934-25.989S293.7,150.419,293.7,150.419s5.662-6.591,12.025-4.4,31.334,37.162,32.587,46.57-14.478,30.475-14.478,30.475c-6.165.82-6.471,5.941-6.471,5.941l.9,6.769c-2.287.305-3.975-2.59-4.371-5.573s-.825-6.195-.825-6.195c-20.116-5.907-31.026-30.465-31.026-30.465S261.078,235.634,229.485,235.217Z" transform="translate(-149.742 -136.894)" fill="#000618" fill-rule="evenodd"/>
      <path id="Path_2291" data-name="Path 2291" d="M195.381,196.456A53.139,53.139,0,0,1,201.6,170.99c19.723,15.279,51.582,25.51,78.117-33.1a28.885,28.885,0,0,1,5.029,3.262C274.47,170.956,248.214,223.009,195.381,196.456Z" transform="translate(-149.741 -136.476)" fill="#0f1630" fill-rule="evenodd"/>
      <path id="Path_2292" data-name="Path 2292" d="M229.032,220.238s.428,3.213.824,6.2-5.327,10.965-7.614,11.268l-1.449-10.887s-1.635-4.864-7.8-4.041a53.529,53.529,0,0,1-16.539-27.965c.028.02,37.362,25.951,83.322-22.3,0,0,21.028,32.795,51.793,23.026a141.372,141.372,0,0,1-8.191,12.542c-6.165.82-6.471,5.941-6.471,5.941l.9,6.769c-2.288.305-3.976-2.59-4.372-5.573s-.825-6.195-.825-6.195c-20.116-5.907-31.026-30.465-31.026-30.465S260.625,220.654,229.032,220.238Z" transform="translate(-149.289 -121.914)" fill="#01020e" fill-rule="evenodd"/>
      <path id="Path_2293" data-name="Path 2293" d="M286.113,262.662l3.147.858s1.842-16.42,1.827-18.011-.831-3.88-2.044-6.56-5.664-12.819-5.9-13.143-3.117,2.173-1.82,6.614,3.495,10.452,3.475,11.738-2.959,12.66-2.959,12.66Z" transform="translate(-113.74 -99.514)" fill="#ef8871" fill-rule="evenodd"/>
      <path id="Path_2294" data-name="Path 2294" d="M297.192,256.271a7,7,0,0,0-3.666-6.1c-3.154-1.913-10.6-7.812-12.19-8.5s-3.406-.378-5.293.825-7.844,5.3-9.1,6.6-4.382,9.339-4.766,10.182,2.763,1.608,5.273-.293c0,0-1.314,2.637-1.736,3.53s-1,7.687-1.054,9.065,3.756.689,5.047-2.477c0,0-.207,2.28-.209,2.989s2.178.442,2.178.442,2.512,13.624,3.076,15.325,22.193,79.478,22.193,79.478l31.289-1.889S294.1,289.117,293.875,288C291.94,278.389,297.233,264.344,297.192,256.271Z" transform="translate(-121.664 -92.981)" fill="#f4ad85" fill-rule="evenodd"/>
      <path id="Path_2295" data-name="Path 2295" d="M268.854,266.912l.134.72h0l.048.261,0,.026,0,.011.007.037.007.038.007.038.007.033v.006l.009.04.013.08.009.041v0l.024.124.008.044c.669,3.588,2.348,12.472,2.8,13.825.416,1.261,12.418,44.355,18.594,66.546a89.722,89.722,0,0,0,11.948-5.881s-24.208-56.349-24.773-58.569.766-3.982.3-4.581-2.335-1.467-2.8-3.068-1.6-7.269-.867-9.536c.565-1.75,2.4-1.536,3.215-1.347a21.306,21.306,0,0,0,2.374.6c1.213.161,1.122-.581,1.122-.581.267-2.509,2.7-6.081,2.7-6.081-1.327-.722-3.382-4.141-3.382-4.141-1.355-.585-2.419-1.338-3.477-.591a26.2,26.2,0,0,0-4.013,4.076,39.68,39.68,0,0,1-.814,5.275C271.552,266.361,268.854,266.912,268.854,266.912Z" transform="translate(-118.842 -87.355)" fill="#ef8871" fill-rule="evenodd"/>
      <g id="Group_808" data-name="Group 808" transform="translate(0.465 249.91)">
        <path id="Path_2296" data-name="Path 2296" d="M172.2,418.626H399.038a6.606,6.606,0,0,0,6.336-6.816h0a6.607,6.607,0,0,0-6.336-6.814H172.2a6.608,6.608,0,0,0-6.336,6.814h0A6.608,6.608,0,0,0,172.2,418.626Z" transform="translate(-162.617 -274.055)" fill="#000618" fill-rule="evenodd"/>
        <path id="Path_2297" data-name="Path 2297" d="M404.115,312.819H169.051a5.349,5.349,0,0,0-5.4,6.356L181.617,438.5a7.684,7.684,0,0,0,7.313,6.357h195.3a7.685,7.685,0,0,0,7.314-6.357l17.966-119.323A5.349,5.349,0,0,0,404.115,312.819Z" transform="translate(-163.58 -312.819)" fill="#000618" fill-rule="evenodd"/>
        <path id="Path_2298" data-name="Path 2298" d="M397.269,316.789H172.659a5.112,5.112,0,0,0-5.159,6.073l17.167,114.015a7.342,7.342,0,0,0,6.988,6.074H378.27a7.342,7.342,0,0,0,6.989-6.074l17.167-114.015A5.111,5.111,0,0,0,397.269,316.789Z" transform="translate(-161.96 -311.149)" fill="#0f1630" fill-rule="evenodd"/>
        <path id="Path_2299" data-name="Path 2299" d="M176.465,407.545l4.4,29.242a7.342,7.342,0,0,0,6.988,6.074H374.471a7.342,7.342,0,0,0,6.989-6.074l17.167-114.015A5.1,5.1,0,0,0,395.306,317C369.6,361.352,306.418,434,176.465,407.545Z" transform="translate(-158.161 -311.06)" fill="#000618" fill-rule="evenodd"/>
        <path id="Path_2300" data-name="Path 2300" d="M257.564,396.613c13.761,0,24.983-9.369,24.983-20.855S271.325,354.9,257.564,354.9s-24.982,9.369-24.982,20.854S243.8,396.613,257.564,396.613Z" transform="translate(-134.561 -295.12)" fill="#000618" fill-rule="evenodd"/>
        <path id="Path_2301" data-name="Path 2301" d="M255.788,358.429c6.989,0,13.095,3.152,16.389,7.847l-29.045,19.808a14.813,14.813,0,0,1-6.327-11.809c0-8.751,8.5-15.846,18.983-15.846Zm15.421,25.087-8.722-4.8-14.546,9.994a22.09,22.09,0,0,0,7.847,1.414A20.313,20.313,0,0,0,271.209,383.516Z" transform="translate(-132.785 -293.638)" fill="#fff" fill-rule="evenodd"/>
      </g>
      <path id="Path_2302" data-name="Path 2302" d="M268.972,201.649h0a4.062,4.062,0,0,0-3.365,4.637l.831,5.221a4.063,4.063,0,0,0,4.638,3.365h0a4.063,4.063,0,0,0,3.365-4.64l-.83-5.219A4.064,4.064,0,0,0,268.972,201.649Z" transform="translate(-120.229 -109.682)" fill="#01020e" fill-rule="evenodd"/>
      <path id="Path_2303" data-name="Path 2303" d="M234.789,206.828h0a4.062,4.062,0,0,0-3.365,4.638l.831,5.219a4.064,4.064,0,0,0,4.639,3.365h0a4.062,4.062,0,0,0,3.362-4.64l-.83-5.219A4.062,4.062,0,0,0,234.789,206.828Z" transform="translate(-134.604 -107.504)" fill="#01020e" fill-rule="evenodd"/>
      <path id="Path_2304" data-name="Path 2304" d="M270.192,227.478a1.474,1.474,0,0,1,.287,2.031,1.406,1.406,0,0,1-2.009.124c-.014-.013-4.857-4.238-13.488,3.71a1.5,1.5,0,0,1-2.038-2.19C263.363,221.558,270.172,227.463,270.192,227.478Z" transform="matrix(-0.966, 0.259, -0.259, -0.966, 448.113, 284.25)" fill="#ef8871" fill-rule="evenodd"/>
      <path id="Path_2305" data-name="Path 2305" d="M291.63,278.318a.914.914,0,0,1,.729.875c.1.8-4.738,7.086-18.274,7.562,0,0-.324-.1-.374-.308s.163-.44.163-.44l-.07-.253s-.487.349-.487.767,2,8.778,2.4,10.879,4.513,1.615,7.992.773,11.771-3.745,13.948-8.241a4.349,4.349,0,0,0-.067-2.1c-.334-.967-4.534-8.752-4.752-9.219a1.3,1.3,0,0,0-1.35-.607Z" transform="translate(-116.965 -77.56)" fill="#0f1630" fill-rule="evenodd"/>
      <path id="Path_2306" data-name="Path 2306" d="M280.512,283.709a38.217,38.217,0,0,1-6.427.744s-.324-.1-.374-.308.163-.44.163-.44l-.07-.253s-.487.349-.487.767,2,8.778,2.4,10.879,4.513,1.615,7.992.773c.493-.119,1.087-.28,1.746-.483l-4.946-11.677Z" transform="translate(-116.965 -75.259)" fill="#000618" fill-rule="evenodd"/>
    </g>
    <g id="Group_810" data-name="Group 810" transform="translate(122.915 661.592)">
      <path id="Path_2307" data-name="Path 2307" d="M122.415,419.136H574.2c5.673,0,10.316,3.851,10.316,8.557h0c0,4.706-4.643,8.557-10.316,8.557H122.415c-5.675,0-10.318-3.85-10.318-8.557h0C112.1,422.987,116.74,419.136,122.415,419.136Z" transform="translate(-91.523 -405.861)" fill="#000618" fill-rule="evenodd"/>
      <path id="Rectangle_111" data-name="Rectangle 111" d="M7.684,0h498.2a7.684,7.684,0,0,1,7.684,7.684v6.465a7.684,7.684,0,0,1-7.684,7.684H7.685A7.685,7.685,0,0,1,0,14.148V7.684A7.684,7.684,0,0,1,7.684,0Z" fill="#be865e"/>
      <rect id="Rectangle_112" data-name="Rectangle 112" width="22.712" height="21.833" transform="translate(311.219)" fill="#915e40"/>
      <rect id="Rectangle_113" data-name="Rectangle 113" width="11.799" height="21.833" transform="translate(351.011)" fill="#915e40"/>
      <rect id="Rectangle_114" data-name="Rectangle 114" width="5.9" height="21.833" transform="translate(378.986)" fill="#915e40"/>
      <rect id="Rectangle_115" data-name="Rectangle 115" width="25.406" height="21.833" transform="translate(425.524)" fill="#915e40"/>
      <rect id="Rectangle_116" data-name="Rectangle 116" width="12.703" height="21.833" transform="translate(470.084)" fill="#915e40"/>
      <rect id="Rectangle_117" data-name="Rectangle 117" width="212.792" height="12.978" rx="4.567" transform="translate(5.309 3.544)" fill="#d49d80"/>
    </g>
    <g id="Group_811" data-name="Group 811" transform="translate(283.421 91.485)">
      <path id="Path_2308" data-name="Path 2308" d="M199.184,104.883l4.671,26.886,60.614-48.754L201.177,98.579Z" transform="translate(-182.496 -83.016)" fill="#d5eaf5" fill-rule="evenodd"/>
      <path id="Path_2309" data-name="Path 2309" d="M202.472,124.313l23.375-18.8a37.589,37.589,0,0,1,1.092-4.767L207.3,106.022Z" transform="translate(-181.113 -75.56)" fill="#ecf6fc" fill-rule="evenodd"/>
      <path id="Path_2310" data-name="Path 2310" d="M269.409,83.016,187.436,98.178l16.688,6.7Z" transform="translate(-187.436 -83.016)" fill="#fff" fill-rule="evenodd"/>
      <path id="Path_2311" data-name="Path 2311" d="M261.656,83.016l-36.838,48.942-18.948-18.48Z" transform="translate(-179.683 -83.016)" fill="#fff" fill-rule="evenodd"/>
    </g>
    <g id="Group_812" data-name="Group 812" transform="translate(118.571 371.752)">
      <path id="Path_2312" data-name="Path 2312" d="M97.07,268.481a107.113,107.113,0,0,1,24.84-2.912h0a21.711,21.711,0,0,0,21.646-21.646h0a21.44,21.44,0,0,0-.217-3.054h34.232a9.419,9.419,0,0,1,9.391,9.391V316.5a1.049,1.049,0,0,1-1.79.743l-16-16H106.461a9.418,9.418,0,0,1-9.391-9.391Z" transform="translate(-93.499 -237.297)" fill="#a6cae4" fill-rule="evenodd"/>
      <path id="Path_2313" data-name="Path 2313" d="M103.947,238.354h71.11a9.418,9.418,0,0,1,9.391,9.39V313.99a1.049,1.049,0,0,1-1.79.742l-16-16H103.947a9.418,9.418,0,0,1-9.391-9.39V247.744A9.418,9.418,0,0,1,103.947,238.354Z" transform="translate(-94.556 -238.354)" fill="#dc5645" fill-rule="evenodd"/>
    </g>
    <g id="Group_813" data-name="Group 813" transform="translate(499.577 161.968)">
      <path id="Path_2314" data-name="Path 2314" d="M404.812,119.184H330.828a9.8,9.8,0,0,0-9.769,9.769v68.921a1.09,1.09,0,0,0,1.861.771L339.57,182h65.242a9.8,9.8,0,0,0,9.769-9.771V128.953A9.8,9.8,0,0,0,404.812,119.184Z" transform="translate(-316.812 -119.184)" fill="#a6cae4" fill-rule="evenodd"/>
      <path id="Path_2315" data-name="Path 2315" d="M401.82,119.184H327.84a9.8,9.8,0,0,0-9.771,9.769v68.921a1.09,1.09,0,0,0,1.862.771L336.58,182h65.24a9.8,9.8,0,0,0,9.771-9.771V128.953A9.8,9.8,0,0,0,401.82,119.184Z" transform="translate(-318.069 -119.184)" fill="#dc5645" fill-rule="evenodd"/>
    </g>
    <path id="Path_2316" data-name="Path 2316" d="M430.867,264.583a25.138,25.138,0,1,1-17.774,7.363,25.063,25.063,0,0,1,17.774-7.363Zm22.413,26.478H443.022a49.785,49.785,0,0,1-.855,8.147,30.607,30.607,0,0,1,7.527,2.753,22.329,22.329,0,0,0,3.585-10.9Zm-12.94,0h-8.133v6.905a50.161,50.161,0,0,1,7.334.706,47.062,47.062,0,0,0,.8-7.611Zm-10.815,0h-8.131a46.734,46.734,0,0,0,.8,7.611,50.18,50.18,0,0,1,7.334-.706v-6.905Zm-10.815,0H408.452a22.346,22.346,0,0,0,3.587,10.9,30.566,30.566,0,0,1,7.528-2.753,49.778,49.778,0,0,1-.855-8.147Zm-10.259-2.683h10.259a50.625,50.625,0,0,1,.636-6.919,29.723,29.723,0,0,1-7.894-3.027,22.332,22.332,0,0,0-3,9.947Zm13.522-6.37a47.867,47.867,0,0,0-.58,6.37h8.131v-5.625a50.207,50.207,0,0,1-7.552-.744Zm17.785,0a50.208,50.208,0,0,1-7.552.744v5.625h8.133a47.636,47.636,0,0,0-.581-6.37Zm3.262,6.37H453.28a22.328,22.328,0,0,0-3-9.947,29.781,29.781,0,0,1-7.9,3.027,50.385,50.385,0,0,1,.636,6.919Zm-10.813-20.868v12.56a48,48,0,0,0,7.043-.693,30.8,30.8,0,0,0-1.943-5.928c-.955-2.094-2.713-5.074-5.1-5.939Zm0,33.14v11.279c2.387-.867,4.145-3.845,5.1-5.941a29.408,29.408,0,0,0,1.642-4.7,47.877,47.877,0,0,0-6.742-.639Zm-2.682,11.279V300.649a47.917,47.917,0,0,0-6.743.639,29.145,29.145,0,0,0,1.645,4.7c.952,2.1,2.713,5.076,5.1,5.941Zm0-31.859v-12.56c-2.385.865-4.147,3.845-5.1,5.939a30.805,30.805,0,0,0-1.945,5.928,48,48,0,0,0,7.044.693Zm-16.583-3.875a27.321,27.321,0,0,0,6.918,2.629,33.542,33.542,0,0,1,2.131-6.486,19.814,19.814,0,0,1,2.482-4.149,22.537,22.537,0,0,0-11.531,8.006Zm28.931,2.629a27.32,27.32,0,0,0,6.918-2.629,22.694,22.694,0,0,0-2.047-2.352,22.457,22.457,0,0,0-9.482-5.654,19.944,19.944,0,0,1,2.483,4.149,33.824,33.824,0,0,1,2.128,6.486Zm6.206,25.314a28.222,28.222,0,0,0-6.5-2.317,32.535,32.535,0,0,1-1.834,5.277,19.824,19.824,0,0,1-2.485,4.151,22.458,22.458,0,0,0,9.484-5.652q.7-.7,1.335-1.459Zm-27.925-2.317a28.023,28.023,0,0,0-6.5,2.317q.635.756,1.337,1.459a22.428,22.428,0,0,0,9.482,5.652,19.88,19.88,0,0,1-2.483-4.149A32.464,32.464,0,0,1,420.154,301.821Z" transform="translate(235.492 148.993)" fill="#fff" fill-rule="evenodd"/>
    <path id="Path_2317" data-name="Path 2317" d="M79.392,188.087A9.142,9.142,0,0,1,83,184.324a5.583,5.583,0,0,0,2.732-3.665,23.665,23.665,0,0,0,.557-6.141A1.408,1.408,0,0,1,87.7,173.11h2.409a2.5,2.5,0,0,1,.724.115,5.206,5.206,0,0,1,2.614,2.436,9.137,9.137,0,0,1,1.139,4.465,10.215,10.215,0,0,1-.472,3.047c-.215.685-.807,2.685-.531,3.368a1.1,1.1,0,0,0,.411.057h6.044a7.928,7.928,0,0,1,2.051.254,4.837,4.837,0,0,1,2.429,1.445,4.675,4.675,0,0,1,1.1,3.176,8.24,8.24,0,0,1-.219,1.815c.872,2.244,1.047,5.034-.723,6.873a5.586,5.586,0,0,1-1.922,5.012,5.928,5.928,0,0,1-5.81,4.314H85.866a9.32,9.32,0,0,1-5.321-2.165,3.193,3.193,0,0,1-.828,1.409l-.05.045a3.117,3.117,0,0,1-2.146.857H72.484a3.138,3.138,0,0,1-3.135-3.135V190.6a3.136,3.136,0,0,1,.94-2.233l.045-.043a3.127,3.127,0,0,1,2.149-.857H77.52a3.125,3.125,0,0,1,1.872.624Zm1.261,15.623c1.27,1.281,3.4,2.96,5.212,2.96H96.945a3.247,3.247,0,0,0,3.229-2.688,1.407,1.407,0,0,1,.749-.973c1.021-.511,1.053-2.193.906-3.132a1.4,1.4,0,0,1,.543-1.422c1.337-.983.884-3.121.313-4.391a1.382,1.382,0,0,1-.119-1.027,6.153,6.153,0,0,0,.239-1.564,2,2,0,0,0-.4-1.324,2.128,2.128,0,0,0-1.046-.58,5.126,5.126,0,0,0-1.323-.155H93.994A2.893,2.893,0,0,1,91,187.646c-.631-1.524-.041-3.816.425-5.31a7.43,7.43,0,0,0,.345-2.21A6.277,6.277,0,0,0,91,177.048a3.189,3.189,0,0,0-.967-1.122H89.1a22.02,22.02,0,0,1-.653,5.492,8.288,8.288,0,0,1-4.105,5.382c-2.084,1.122-3.327,3.848-3.683,6.114v10.8ZM77.52,190.277H72.484a.294.294,0,0,0-.193.061l-.031.035a.311.311,0,0,0-.1.222v15.9a.321.321,0,0,0,.1.226.316.316,0,0,0,.224.094H77.52a.286.286,0,0,0,.189-.058l.034-.036a.323.323,0,0,0,.1-.226V190.6a.319.319,0,0,0-.1-.224A.315.315,0,0,0,77.52,190.277Z" transform="translate(13.414 80.435)" fill="#fff" fill-rule="evenodd"/>
    <g id="Group_814" data-name="Group 814" transform="translate(572.446 101.97)">
      <rect id="Rectangle_118" data-name="Rectangle 118" width="8.003" height="8.003" rx="1.314" transform="translate(0 16.138)" fill="#fff"/>
      <rect id="Rectangle_119" data-name="Rectangle 119" width="8.003" height="8.003" rx="1.314" transform="translate(14.803 16.138)" fill="#a6cae4"/>
      <path id="Rectangle_120" data-name="Rectangle 120" d="M1.314,0H6.687A1.314,1.314,0,0,1,8,1.314V6.689A1.314,1.314,0,0,1,6.687,8H1.313A1.313,1.313,0,0,1,0,6.69V1.314A1.314,1.314,0,0,1,1.314,0Z" transform="translate(29.608 16.138)" fill="#fff"/>
      <rect id="Rectangle_121" data-name="Rectangle 121" width="8.003" height="8.003" rx="1.314" transform="translate(44.412 16.138)" fill="#a6cae4"/>
      <rect id="Rectangle_122" data-name="Rectangle 122" width="8.002" height="8.003" rx="1.314" transform="translate(59.216 16.138)" fill="#fff"/>
      <rect id="Rectangle_123" data-name="Rectangle 123" width="8.003" height="8.003" rx="1.314" transform="translate(74.02 16.138)" fill="#fff"/>
      <rect id="Rectangle_124" data-name="Rectangle 124" width="8.003" height="8.003" rx="1.314" transform="translate(88.823 16.138)" fill="#fff"/>
      <rect id="Rectangle_125" data-name="Rectangle 125" width="8.003" height="8.002" rx="1.314" transform="translate(44.947)" fill="#fff"/>
      <rect id="Rectangle_126" data-name="Rectangle 126" width="8.003" height="8.002" rx="1.314" transform="translate(59.752)" fill="#a6cae4"/>
      <rect id="Rectangle_127" data-name="Rectangle 127" width="8.003" height="8.002" rx="1.314" transform="translate(74.555)" fill="#fff"/>
      <path id="Rectangle_128" data-name="Rectangle 128" d="M1.314,0H6.687A1.314,1.314,0,0,1,8,1.314V6.688A1.314,1.314,0,0,1,6.688,8H1.313A1.313,1.313,0,0,1,0,6.688V1.314A1.314,1.314,0,0,1,1.314,0Z" transform="translate(59.216 33.477)" fill="#fff"/>
      <path id="Rectangle_129" data-name="Rectangle 129" d="M1.313,0H6.688A1.314,1.314,0,0,1,8,1.314V6.688A1.313,1.313,0,0,1,6.688,8H1.314A1.314,1.314,0,0,1,0,6.688V1.313A1.313,1.313,0,0,1,1.313,0Z" transform="translate(74.02 33.477)" fill="#a6cae4"/>
    </g>
    <path id="Path_2318" data-name="Path 2318" d="M148.38,194.281h0a11,11,0,0,1,15.512,0l1.054,1.053L166,194.281a11,11,0,0,1,15.514,0h0a11,11,0,0,1,0,15.514l-1.053,1.053-15.514,15.514-15.514-15.514L148.38,209.8A11,11,0,0,1,148.38,194.281Z" transform="translate(67.164 93.447)" fill="#fff" fill-rule="evenodd"/>
    <g id="Group_820" data-name="Group 820" transform="translate(146.661 532.166)">
      <g id="Group_818" data-name="Group 818">
        <g id="Group_815" data-name="Group 815" transform="translate(21.735)">
          <path id="Path_2319" data-name="Path 2319" d="M138.247,322.849c-11.379-11.585-19.842,3.131-18.66,17.9,1.119,14.005,13.193,62.061,10.955,82.28h4.621C146.472,397.108,152.813,337.681,138.247,322.849Z" transform="translate(-119.476 -318.681)" fill="#63a9ba" fill-rule="evenodd"/>
          <path id="Path_2320" data-name="Path 2320" d="M130.585,421.164c11.006-40.862-2.928-97.346-2.975-97.538a.653.653,0,0,0-1.27.308c.047.192,14,56.74,2.908,97.229Z" transform="translate(-116.598 -316.812)" fill="#80b9c9" fill-rule="evenodd"/>
        </g>
        <g id="Group_816" data-name="Group 816" transform="translate(0 28.101)">
          <path id="Path_2321" data-name="Path 2321" d="M116.61,340.062c-11.989-6.353-15.014,7.508-10.339,18.976,3.874,9.5,20.989,37.615,27.459,55.676h6.094C140.343,389.753,130.764,347.56,116.61,340.062Z" transform="translate(-104.176 -338.463)" fill="#fff" fill-rule="evenodd"/>
          <path id="Path_2322" data-name="Path 2322" d="M135.849,413.114c-3.966-33.758-26.417-70.451-26.5-70.584a.546.546,0,1,0-.933.567c.08.132,22.386,36.588,26.347,70.017Z" transform="translate(-102.426 -336.863)" fill="#b8b8c1" fill-rule="evenodd"/>
        </g>
        <g id="Group_817" data-name="Group 817" transform="translate(37.177 44.595)">
          <path id="Path_2323" data-name="Path 2323" d="M156.282,351.2c11.622-5.076,13.463,8.053,8.3,18.412-3.493,7.009-16.082,24.953-24.56,40.219h-9.675C133.655,386.737,144.27,356.448,156.282,351.2Z" transform="translate(-130.347 -350.074)" fill="#3a7f80" fill-rule="evenodd"/>
          <path id="Path_2324" data-name="Path 2324" d="M132.779,408.323c8.251-27.979,27.252-54.345,27.328-54.451a.511.511,0,0,1,.831.594c-.077.105-18.878,26.2-27.108,53.857Z" transform="translate(-129.324 -348.567)" fill="#51a5a5" fill-rule="evenodd"/>
        </g>
      </g>
      <g id="Group_819" data-name="Group 819" transform="translate(14.741 93.451)">
        <path id="Rectangle_130" data-name="Rectangle 130" d="M1.538,0H43.01a1.538,1.538,0,0,1,1.538,1.538V12.751a1.539,1.539,0,0,1-1.539,1.539H1.538A1.538,1.538,0,0,1,0,12.752V1.538A1.538,1.538,0,0,1,1.538,0Z" fill="#2f365c"/>
        <path id="Path_2325" data-name="Path 2325" d="M122.983,390.147h26.4l6.892,6.22-5.63,21.685H121.721l-5.63-21.685Z" transform="translate(-113.906 -382.078)" fill="#2f365c" fill-rule="evenodd"/>
        <path id="Path_2326" data-name="Path 2326" d="M156.27,394.525l-1.158,4.457H117.249l-1.158-4.457Z" transform="translate(-113.906 -380.237)" fill="#121c39" fill-rule="evenodd"/>
      </g>
    </g>
    <circle id="Ellipse_43" data-name="Ellipse 43" cx="3.734" cy="3.734" r="3.734" transform="translate(422.594 114.506)" fill="#a6cae4"/>
    <circle id="Ellipse_44" data-name="Ellipse 44" cx="3.734" cy="3.734" r="3.734" transform="translate(491.633 382.971)" fill="#a6cae4"/>
    <circle id="Ellipse_45" data-name="Ellipse 45" cx="3.734" cy="3.734" r="3.734" transform="translate(577.629 590.126)" fill="#a6cae4"/>
    <circle id="Ellipse_46" data-name="Ellipse 46" cx="3.734" cy="3.734" r="3.734" transform="translate(77.977 534.732)" fill="#a6cae4"/>
    <path id="Path_2327" data-name="Path 2327" d="M385.181,186.684a3.735,3.735,0,1,0-3.735-3.735A3.742,3.742,0,0,0,385.181,186.684Z" transform="translate(225.279 82.863)" fill="#a6cae4" fill-rule="evenodd"/>
    <circle id="Ellipse_47" data-name="Ellipse 47" cx="3.734" cy="3.734" r="3.734" transform="translate(210.632 232.498)" fill="#a6cae4"/>
    <circle id="Ellipse_48" data-name="Ellipse 48" cx="3.734" cy="3.734" r="3.734" transform="translate(200.336 491.004)" fill="#fff"/>
    <circle id="Ellipse_49" data-name="Ellipse 49" cx="3.734" cy="3.734" r="3.734" transform="translate(618.463 468.498)" fill="#fff"/>
    <path id="Path_2328" data-name="Path 2328" d="M340.867,196.072a3.734,3.734,0,1,0-3.736-3.735A3.742,3.742,0,0,0,340.867,196.072Z" transform="translate(183.571 89.551)" fill="#fff" fill-rule="evenodd"/>
    <circle id="Ellipse_50" data-name="Ellipse 50" cx="3.734" cy="3.734" r="3.734" transform="translate(486.183 103.303)" fill="#fff"/>
    <circle id="Ellipse_51" data-name="Ellipse 51" cx="3.734" cy="3.734" r="3.734" transform="translate(663.811 224.781)" fill="#fff"/>
    <g id="Group_821" data-name="Group 821" transform="translate(547.213 582.819)">
      <path id="Path_2329" data-name="Path 2329" d="M385.92,384.49a12.208,12.208,0,1,1-8.634,3.577,12.176,12.176,0,0,1,8.634-3.577Zm5.265,6.946a7.445,7.445,0,1,0,2.179,5.263A7.427,7.427,0,0,0,391.185,391.436Z" transform="translate(-339.829 -341.659)" fill="#a62a34" fill-rule="evenodd"/>
      <path id="Path_2330" data-name="Path 2330" d="M374.29,421.995h0a19.2,19.2,0,0,0,19.15-19.15V382.887a1.7,1.7,0,0,0-1.7-1.693H356.837a1.7,1.7,0,0,0-1.695,1.693v19.957A19.2,19.2,0,0,0,374.29,421.995Z" transform="translate(-347.639 -343.045)" fill="#d84f50" fill-rule="evenodd"/>
      <path id="Path_2331" data-name="Path 2331" d="M384.084,400.452a18.992,18.992,0,0,1-.925,5.87,18.785,18.785,0,0,1-1.274,3.013,19.331,19.331,0,0,1-9.63,8.8,19.094,19.094,0,0,1-10.458,1.2,19.05,19.05,0,0,0,21.186-1.2,19.379,19.379,0,0,0,5.149-5.847,18.989,18.989,0,0,0,2.509-9.448V382.887a1.7,1.7,0,0,0-1.7-1.693h-4.861v19.258Z" transform="translate(-344.84 -343.045)" fill="#a62a34" fill-rule="evenodd"/>
      <path id="Path_2332" data-name="Path 2332" d="M357.693,411.428h33.194a2.56,2.56,0,0,0,2.553-2.553h0a2.56,2.56,0,0,0-2.553-2.554H357.693a2.56,2.56,0,0,0-2.551,2.554h0A2.56,2.56,0,0,0,357.693,411.428Z" transform="translate(-347.639 -332.478)" fill="#d84f50" fill-rule="evenodd"/>
      <path id="Rectangle_131" data-name="Rectangle 131" d="M2.271,0H4.182a2.27,2.27,0,0,1,2.27,2.27V15.733A2.27,2.27,0,0,1,4.182,18H2.271A2.271,2.271,0,0,1,0,15.733V2.271A2.271,2.271,0,0,1,2.271,0Z" transform="translate(10.41 41.788)" fill="#de7272"/>
      <path id="Path_2333" data-name="Path 2333" d="M360.156,368.877h14.6a2.019,2.019,0,0,0,2.013-2.013h0a2.018,2.018,0,0,0-2.013-2.012H355.117a5.274,5.274,0,0,1-5.257-5.257h0a5.272,5.272,0,0,1,5.257-5.256h51.066a5.272,5.272,0,0,1,5.256,5.256h0a5.273,5.273,0,0,1-5.256,5.257H388.373a2.017,2.017,0,0,0-2.013,2.012h0a2.019,2.019,0,0,0,2.013,2.013h6.853a4.069,4.069,0,0,1,4.057,4.057h0a4.068,4.068,0,0,1-4.057,4.056H383.891a8.09,8.09,0,0,0-8.064,8.066v3.7a1.909,1.909,0,0,1-1.9,1.9h0a1.909,1.909,0,0,1-1.9-1.9v-7.035a4.742,4.742,0,0,0-4.728-4.729h-7.133a4.068,4.068,0,0,1-4.056-4.056h0A4.068,4.068,0,0,1,360.156,368.877Z" transform="translate(-349.86 -354.339)" fill="#fff" fill-rule="evenodd"/>
    </g>
  </g>
</svg>
